<svg width="14" height="14" viewBox="0 0 14 14" fill="none" xmlns="http://www.w3.org/2000/svg">
<rect width="14" height="14" fill="#F5F5F5"/>
<g clip-path="url(#clip0_0_1)">
<rect width="375" height="3260" transform="translate(-291 -32)" fill="#F9F9FA"/>
<rect x="-291" y="-32" width="375" height="69.1223" fill="white"/>
<rect x="-124" y="-10" width="148" height="33" rx="5" fill="#F7F7F7"/>
<path fill-rule="evenodd" clip-rule="evenodd" d="M2.38419e-07 5.25C2.38419e-07 8.14949 2.35051 10.5 5.25 10.5C6.46215 10.5 7.57835 10.0892 8.46697 9.39924C8.50045 9.47005 8.54646 9.53641 8.60503 9.59497L12.805 13.795C13.0784 14.0683 13.5216 14.0683 13.795 13.795C14.0683 13.5216 14.0683 13.0784 13.795 12.805L9.59498 8.60502C9.53641 8.54646 9.47005 8.50044 9.39924 8.46697C10.0892 7.57834 10.5 6.46215 10.5 5.25C10.5 2.35051 8.1495 0 5.25 0C2.35051 0 2.38419e-07 2.35051 2.38419e-07 5.25ZM1.4 5.25C1.4 3.1237 3.1237 1.4 5.25 1.4C7.3763 1.4 9.1 3.1237 9.1 5.25C9.1 7.3763 7.3763 9.1 5.25 9.1C3.1237 9.1 1.4 7.3763 1.4 5.25Z" fill="#B2B6C1"/>
</g>
<defs>
<clipPath id="clip0_0_1">
<rect width="375" height="3260" fill="white" transform="translate(-291 -32)"/>
</clipPath>
</defs>
</svg>
